<svg xmlns="http://www.w3.org/2000/svg" xmlns:xlink="http://www.w3.org/1999/xlink" width="1080" zoomAndPan="magnify" viewBox="0 0 810 809.999993" height="1080" preserveAspectRatio="xMidYMid meet" version="1.0"><defs><clipPath id="d27ae76535"><path d="M 1.671875 11.054688 L 810 11.054688 L 810 806.054688 L 1.671875 806.054688 Z M 1.671875 11.054688 " clip-rule="nonzero"/></clipPath></defs><path fill="#ffd773" d="M 615.765625 408.554688 C 615.765625 411.933594 615.679688 415.3125 615.511719 418.6875 C 615.34375 422.0625 615.089844 425.429688 614.753906 428.792969 C 614.417969 432.15625 613.996094 435.511719 613.492188 438.851562 C 612.988281 442.195312 612.402344 445.523438 611.734375 448.839844 C 611.0625 452.152344 610.308594 455.449219 609.476562 458.726562 C 608.640625 462.003906 607.726562 465.261719 606.730469 468.496094 C 605.730469 471.726562 604.65625 474.9375 603.5 478.117188 C 602.339844 481.300781 601.105469 484.449219 599.792969 487.574219 C 598.476562 490.695312 597.085938 493.785156 595.617188 496.839844 C 594.148438 499.894531 592.605469 502.910156 590.988281 505.890625 C 589.367188 508.871094 587.675781 511.808594 585.910156 514.707031 C 584.144531 517.605469 582.308594 520.460938 580.398438 523.269531 C 578.492188 526.082031 576.515625 528.84375 574.46875 531.558594 C 572.421875 534.269531 570.3125 536.933594 568.132812 539.546875 C 565.953125 542.160156 563.710938 544.71875 561.40625 547.222656 C 559.097656 549.722656 556.730469 552.171875 554.304688 554.5625 C 551.875 556.949219 549.386719 559.28125 546.84375 561.550781 C 544.296875 563.816406 541.699219 566.023438 539.042969 568.167969 C 536.390625 570.3125 533.683594 572.390625 530.925781 574.402344 C 528.167969 576.417969 525.359375 578.363281 522.503906 580.238281 C 519.648438 582.117188 516.746094 583.925781 513.800781 585.660156 C 510.855469 587.398438 507.867188 589.0625 504.839844 590.65625 C 501.8125 592.25 498.746094 593.769531 495.640625 595.214844 C 492.535156 596.660156 489.398438 598.027344 486.222656 599.320312 C 483.050781 600.613281 479.847656 601.828125 476.613281 602.96875 C 473.382812 604.105469 470.121094 605.167969 466.835938 606.148438 C 463.546875 607.128906 460.238281 608.027344 456.910156 608.851562 C 453.578125 609.671875 450.226562 610.410156 446.859375 611.070312 C 443.492188 611.730469 440.109375 612.308594 436.710938 612.804688 C 433.3125 613.300781 429.90625 613.710938 426.488281 614.042969 C 423.070312 614.375 419.648438 614.625 416.21875 614.789062 C 412.785156 614.953125 409.355469 615.039062 405.921875 615.039062 C 402.484375 615.039062 399.054688 614.953125 395.625 614.789062 C 392.195312 614.625 388.769531 614.375 385.351562 614.042969 C 381.933594 613.710938 378.527344 613.300781 375.128906 612.804688 C 371.734375 612.308594 368.351562 611.730469 364.980469 611.070312 C 361.613281 610.410156 358.265625 609.671875 354.933594 608.851562 C 351.601562 608.027344 348.292969 607.128906 345.003906 606.148438 C 341.71875 605.167969 338.460938 604.105469 335.226562 602.96875 C 331.992188 601.828125 328.789062 600.613281 325.617188 599.320312 C 322.445312 598.027344 319.304688 596.660156 316.199219 595.214844 C 313.097656 593.769531 310.027344 592.25 307 590.65625 C 303.972656 589.0625 300.984375 587.398438 298.039062 585.660156 C 295.09375 583.925781 292.191406 582.117188 289.335938 580.238281 C 286.480469 578.363281 283.675781 576.417969 280.917969 574.402344 C 278.15625 572.390625 275.453125 570.3125 272.796875 568.167969 C 270.140625 566.023438 267.542969 563.816406 264.996094 561.550781 C 262.453125 559.28125 259.964844 556.949219 257.539062 554.5625 C 255.109375 552.171875 252.742188 549.722656 250.4375 547.222656 C 248.128906 544.71875 245.886719 542.160156 243.707031 539.546875 C 241.53125 536.933594 239.417969 534.269531 237.371094 531.558594 C 235.324219 528.84375 233.347656 526.082031 231.441406 523.269531 C 229.535156 520.460938 227.695312 517.605469 225.929688 514.707031 C 224.164062 511.808594 222.472656 508.871094 220.855469 505.890625 C 219.234375 502.910156 217.691406 499.894531 216.222656 496.839844 C 214.753906 493.785156 213.363281 490.695312 212.050781 487.574219 C 210.734375 484.449219 209.5 481.300781 208.34375 478.117188 C 207.1875 474.9375 206.109375 471.726562 205.113281 468.496094 C 204.113281 465.261719 203.199219 462.003906 202.363281 458.726562 C 201.53125 455.449219 200.777344 452.152344 200.109375 448.839844 C 199.4375 445.523438 198.851562 442.195312 198.347656 438.851562 C 197.84375 435.511719 197.421875 432.15625 197.085938 428.792969 C 196.75 425.429688 196.496094 422.0625 196.328125 418.6875 C 196.160156 415.3125 196.074219 411.933594 196.074219 408.554688 C 196.074219 405.175781 196.160156 401.800781 196.328125 398.425781 C 196.496094 395.050781 196.75 391.679688 197.085938 388.316406 C 197.421875 384.953125 197.84375 381.601562 198.347656 378.257812 C 198.851562 374.914062 199.4375 371.585938 200.109375 368.273438 C 200.777344 364.957031 201.53125 361.664062 202.363281 358.382812 C 203.199219 355.105469 204.113281 351.851562 205.113281 348.617188 C 206.109375 345.382812 207.1875 342.175781 208.34375 338.992188 C 209.5 335.8125 210.734375 332.660156 212.050781 329.539062 C 213.363281 326.417969 214.753906 323.328125 216.222656 320.273438 C 217.691406 317.21875 219.234375 314.199219 220.855469 311.222656 C 222.472656 308.242188 224.164062 305.300781 225.929688 302.402344 C 227.695312 299.503906 229.535156 296.648438 231.441406 293.839844 C 233.347656 291.03125 235.324219 288.269531 237.371094 285.554688 C 239.417969 282.839844 241.53125 280.175781 243.707031 277.566406 C 245.886719 274.953125 248.128906 272.394531 250.4375 269.890625 C 252.742188 267.386719 255.109375 264.941406 257.539062 262.550781 C 259.964844 260.160156 262.453125 257.832031 264.996094 255.5625 C 267.542969 253.292969 270.140625 251.085938 272.796875 248.941406 C 275.453125 246.800781 278.15625 244.722656 280.917969 242.707031 C 283.675781 240.695312 286.480469 238.75 289.335938 236.871094 C 292.191406 234.996094 295.09375 233.1875 298.039062 231.449219 C 300.984375 229.710938 303.972656 228.046875 307 226.453125 C 310.027344 224.863281 313.097656 223.34375 316.199219 221.898438 C 319.304688 220.453125 322.445312 219.085938 325.617188 217.792969 C 328.789062 216.496094 331.992188 215.28125 335.226562 214.144531 C 338.460938 213.003906 341.71875 211.945312 345.003906 210.964844 C 348.292969 209.984375 351.601562 209.082031 354.933594 208.261719 C 358.265625 207.441406 361.613281 206.699219 364.980469 206.042969 C 368.351562 205.382812 371.734375 204.804688 375.128906 204.308594 C 378.527344 203.8125 381.933594 203.398438 385.351562 203.066406 C 388.769531 202.738281 392.195312 202.488281 395.625 202.324219 C 399.054688 202.15625 402.484375 202.074219 405.921875 202.074219 C 409.355469 202.074219 412.785156 202.15625 416.21875 202.324219 C 419.648438 202.488281 423.070312 202.738281 426.488281 203.066406 C 429.90625 203.398438 433.3125 203.8125 436.710938 204.308594 C 440.109375 204.804688 443.492188 205.382812 446.859375 206.042969 C 450.226562 206.699219 453.578125 207.441406 456.910156 208.261719 C 460.238281 209.082031 463.546875 209.984375 466.835938 210.964844 C 470.121094 211.945312 473.382812 213.003906 476.613281 214.144531 C 479.847656 215.28125 483.050781 216.496094 486.222656 217.792969 C 489.398438 219.085938 492.535156 220.453125 495.640625 221.898438 C 498.746094 223.34375 501.8125 224.863281 504.839844 226.453125 C 507.867188 228.046875 510.855469 229.710938 513.800781 231.449219 C 516.746094 233.1875 519.648438 234.996094 522.503906 236.871094 C 525.359375 238.75 528.167969 240.695312 530.925781 242.707031 C 533.683594 244.722656 536.390625 246.800781 539.042969 248.941406 C 541.699219 251.085938 544.296875 253.292969 546.84375 255.5625 C 549.386719 257.832031 551.875 260.160156 554.304688 262.550781 C 556.730469 264.941406 559.097656 267.386719 561.40625 269.890625 C 563.710938 272.394531 565.953125 274.953125 568.132812 277.566406 C 570.3125 280.175781 572.421875 282.839844 574.46875 285.554688 C 576.515625 288.269531 578.492188 291.03125 580.398438 293.839844 C 582.308594 296.648438 584.144531 299.503906 585.910156 302.402344 C 587.675781 305.300781 589.367188 308.242188 590.988281 311.222656 C 592.605469 314.199219 594.148438 317.21875 595.617188 320.273438 C 597.085938 323.328125 598.476562 326.417969 599.792969 329.539062 C 601.105469 332.660156 602.339844 335.8125 603.5 338.992188 C 604.65625 342.175781 605.730469 345.382812 606.730469 348.617188 C 607.726562 351.851562 608.640625 355.105469 609.476562 358.382812 C 610.308594 361.664062 611.0625 364.957031 611.734375 368.273438 C 612.402344 371.585938 612.988281 374.914062 613.492188 378.257812 C 613.996094 381.601562 614.417969 384.953125 614.753906 388.316406 C 615.089844 391.679688 615.34375 395.050781 615.511719 398.425781 C 615.679688 401.800781 615.765625 405.175781 615.765625 408.554688 Z M 615.765625 408.554688 " fill-opacity="1" fill-rule="nonzero"/><g clip-path="url(#d27ae76535)"><path fill="#d1a12a" d="M 405.921875 150.890625 C 399.820312 150.890625 395.023438 146.097656 395.023438 140 L 395.023438 21.945312 C 395.023438 15.847656 399.820312 11.054688 405.921875 11.054688 C 412.023438 11.054688 416.816406 15.847656 416.816406 21.945312 L 416.816406 140 C 416.816406 145.878906 411.804688 150.890625 405.921875 150.890625 Z M 416.816406 795.164062 L 416.816406 677.113281 C 416.816406 671.015625 412.023438 666.222656 405.921875 666.222656 C 399.820312 666.222656 395.023438 671.015625 395.023438 677.113281 L 395.023438 795.164062 C 395.023438 801.265625 399.820312 806.054688 405.921875 806.054688 C 412.023438 806.054688 416.816406 801.265625 416.816406 795.164062 Z M 143.558594 408.554688 C 143.558594 402.457031 138.765625 397.664062 132.664062 397.664062 L 12.816406 397.664062 C 6.714844 397.664062 1.921875 402.457031 1.921875 408.554688 C 1.921875 414.65625 6.714844 419.445312 12.816406 419.445312 L 132.664062 419.445312 C 138.765625 419.445312 143.558594 414.65625 143.558594 408.554688 Z M 809.917969 408.554688 C 809.917969 402.457031 805.125 397.664062 799.023438 397.664062 L 679.175781 397.664062 C 673.074219 397.664062 668.28125 402.457031 668.28125 408.554688 C 668.28125 414.65625 673.074219 419.445312 679.175781 419.445312 L 799.023438 419.445312 C 805.125 419.445312 809.917969 414.65625 809.917969 408.554688 Z M 220.480469 226.25 C 224.621094 221.894531 224.621094 215.140625 220.265625 210.785156 L 135.496094 127.367188 C 131.140625 123.226562 124.382812 123.226562 120.027344 127.582031 C 115.886719 131.9375 115.886719 138.691406 120.246094 143.046875 L 205.011719 226.46875 C 207.1875 228.644531 209.804688 229.515625 212.636719 229.515625 C 215.46875 229.515625 218.300781 228.429688 220.480469 226.25 Z M 691.597656 689.746094 C 695.738281 685.390625 695.738281 678.636719 691.378906 674.28125 L 606.613281 590.859375 C 602.253906 586.722656 595.5 586.722656 591.140625 591.078125 C 587 595.433594 587 602.1875 591.359375 606.542969 L 676.125 689.964844 C 678.304688 692.140625 680.917969 693.011719 683.75 693.011719 C 686.585938 693.011719 689.417969 691.925781 691.597656 689.746094 Z M 135.496094 689.746094 L 220.265625 606.324219 C 224.621094 602.1875 224.621094 595.21875 220.480469 590.859375 C 216.339844 586.503906 209.367188 586.503906 205.011719 590.644531 L 120.246094 674.28125 C 115.886719 678.421875 115.886719 685.390625 120.027344 689.746094 C 122.207031 691.925781 125.039062 693.011719 127.871094 693.011719 C 130.703125 693.011719 133.320312 691.925781 135.496094 689.746094 Z M 606.613281 226.46875 L 691.378906 143.046875 C 695.738281 138.910156 695.738281 131.9375 691.597656 127.582031 C 687.457031 123.226562 680.484375 123.226562 676.125 127.367188 L 591.359375 210.785156 C 587 214.925781 587 221.894531 591.140625 226.25 C 593.320312 228.429688 596.152344 229.515625 598.984375 229.515625 C 601.820312 229.515625 604.652344 228.429688 606.613281 226.46875 Z M 305.246094 169.839844 C 310.695312 167.441406 313.308594 161.125 311.132812 155.679688 L 289.777344 104.929688 C 287.378906 99.484375 281.058594 96.871094 275.394531 99.050781 C 269.945312 101.445312 267.332031 107.761719 269.511719 113.207031 L 290.867188 163.957031 C 292.609375 168.09375 296.75 170.710938 300.890625 170.710938 C 302.632812 170.710938 303.941406 170.492188 305.246094 169.839844 Z M 536.230469 718.277344 C 541.675781 715.882812 544.292969 709.566406 542.113281 704.121094 L 520.757812 653.371094 C 518.359375 647.925781 512.042969 645.3125 506.375 647.492188 C 500.929688 649.886719 498.3125 656.203125 500.492188 661.648438 L 521.847656 712.398438 C 523.589844 716.535156 527.730469 719.148438 531.871094 719.148438 C 533.394531 719.148438 534.921875 718.714844 536.230469 718.277344 Z M 105.425781 542.726562 L 157.070312 521.597656 C 162.734375 519.421875 165.351562 512.886719 162.953125 507.441406 C 160.773438 501.777344 154.238281 499.164062 148.789062 501.558594 L 97.144531 522.6875 C 91.480469 524.867188 88.867188 531.398438 91.261719 536.84375 C 93.007812 540.984375 97.144531 543.597656 101.285156 543.597656 C 102.59375 543.597656 104.121094 543.378906 105.425781 542.726562 Z M 662.832031 315.769531 L 714.476562 294.640625 C 720.140625 292.464844 722.757812 285.929688 720.359375 280.484375 C 718.179688 274.820312 711.644531 272.207031 706.195312 274.605469 L 654.550781 295.730469 C 648.886719 297.910156 646.273438 304.445312 648.667969 309.886719 C 650.410156 314.027344 654.550781 316.640625 658.691406 316.640625 C 660.21875 316.421875 661.523438 316.207031 662.832031 315.769531 Z M 520.757812 164.175781 L 542.113281 113.425781 C 544.507812 107.980469 541.894531 101.445312 536.230469 99.269531 C 530.5625 96.871094 524.242188 99.484375 521.847656 105.148438 L 500.492188 155.898438 C 498.09375 161.34375 500.710938 167.878906 506.375 170.054688 C 507.683594 170.710938 509.207031 170.925781 510.515625 170.925781 C 514.875 170.710938 519.015625 168.3125 520.757812 164.175781 Z M 289.777344 712.398438 L 311.132812 661.648438 C 313.527344 656.203125 310.914062 649.667969 305.246094 647.492188 C 299.582031 645.09375 293.261719 647.710938 290.867188 653.371094 L 269.511719 704.121094 C 267.113281 709.566406 269.730469 716.101562 275.394531 718.277344 C 276.703125 718.933594 278.226562 719.148438 279.535156 719.148438 C 283.890625 719.148438 288.03125 716.535156 289.777344 712.398438 Z M 163.171875 309.671875 C 165.351562 304.007812 162.734375 297.691406 157.289062 295.511719 L 105.644531 274.386719 C 99.980469 272.207031 93.660156 274.820312 91.480469 280.265625 C 89.300781 285.929688 91.917969 292.246094 97.363281 294.425781 L 149.007812 315.550781 C 150.316406 316.207031 151.839844 316.421875 153.148438 316.421875 C 157.289062 316.421875 161.429688 313.808594 163.171875 309.671875 Z M 720.578125 536.84375 C 722.757812 531.183594 720.140625 524.867188 714.695312 522.6875 L 662.832031 501.558594 C 657.167969 499.382812 650.847656 501.996094 648.667969 507.441406 C 646.488281 513.105469 649.105469 519.421875 654.550781 521.597656 L 706.195312 542.726562 C 707.503906 543.378906 709.027344 543.597656 710.335938 543.597656 C 714.695312 543.597656 718.835938 540.984375 720.578125 536.84375 Z M 720.578125 536.84375 " fill-opacity="1" fill-rule="nonzero"/></g></svg>