<svg xmlns="http://www.w3.org/2000/svg" xmlns:xlink="http://www.w3.org/1999/xlink" width="1080" zoomAndPan="magnify" viewBox="0 0 810 809.999993" height="1080" preserveAspectRatio="xMidYMid meet" version="1.0"><defs><clipPath id="589157c2b3"><path d="M 541 114.871094 L 576 114.871094 L 576 199 L 541 199 Z M 541 114.871094 " clip-rule="nonzero"/></clipPath><clipPath id="5992c6b681"><path d="M 0 316 L 655 316 L 655 695.371094 L 0 695.371094 Z M 0 316 " clip-rule="nonzero"/></clipPath></defs><path fill="#ffcc00" d="M 686.328125 365.730469 C 686.328125 367.820312 686.277344 369.910156 686.175781 371.996094 C 686.070312 374.085938 685.917969 376.171875 685.714844 378.25 C 685.507812 380.332031 685.253906 382.40625 684.945312 384.472656 C 684.640625 386.539062 684.28125 388.601562 683.875 390.648438 C 683.464844 392.699219 683.007812 394.738281 682.5 396.765625 C 681.992188 398.796875 681.4375 400.808594 680.828125 402.808594 C 680.222656 404.808594 679.566406 406.792969 678.863281 408.761719 C 678.160156 410.730469 677.40625 412.679688 676.609375 414.613281 C 675.808594 416.542969 674.960938 418.453125 674.070312 420.34375 C 673.175781 422.234375 672.234375 424.101562 671.25 425.945312 C 670.265625 427.789062 669.238281 429.605469 668.164062 431.398438 C 667.089844 433.191406 665.96875 434.957031 664.808594 436.695312 C 663.648438 438.433594 662.445312 440.144531 661.199219 441.820312 C 659.957031 443.5 658.671875 445.148438 657.34375 446.765625 C 656.019531 448.378906 654.65625 449.964844 653.253906 451.511719 C 651.847656 453.0625 650.410156 454.574219 648.929688 456.054688 C 647.453125 457.53125 645.941406 458.972656 644.390625 460.375 C 642.84375 461.78125 641.261719 463.144531 639.648438 464.472656 C 638.03125 465.796875 636.382812 467.082031 634.707031 468.328125 C 633.027344 469.574219 631.320312 470.777344 629.582031 471.9375 C 627.84375 473.101562 626.078125 474.21875 624.289062 475.292969 C 622.496094 476.367188 620.679688 477.398438 618.835938 478.382812 C 616.992188 479.367188 615.125 480.308594 613.238281 481.203125 C 611.347656 482.09375 609.4375 482.941406 607.507812 483.742188 C 605.578125 484.542969 603.628906 485.292969 601.660156 486 C 599.695312 486.703125 597.710938 487.359375 595.710938 487.964844 C 593.710938 488.570312 591.699219 489.128906 589.671875 489.636719 C 587.644531 490.144531 585.605469 490.601562 583.554688 491.011719 C 581.507812 491.417969 579.449219 491.777344 577.382812 492.082031 C 575.3125 492.390625 573.242188 492.644531 571.160156 492.851562 C 569.082031 493.054688 567 493.210938 564.910156 493.3125 C 562.824219 493.414062 560.734375 493.464844 558.648438 493.464844 C 556.558594 493.464844 554.46875 493.414062 552.382812 493.3125 C 550.292969 493.210938 548.210938 493.054688 546.132812 492.851562 C 544.050781 492.644531 541.980469 492.390625 539.910156 492.082031 C 537.84375 491.777344 535.785156 491.417969 533.738281 491.011719 C 531.6875 490.601562 529.648438 490.144531 527.621094 489.636719 C 525.59375 489.128906 523.582031 488.570312 521.582031 487.964844 C 519.582031 487.359375 517.597656 486.703125 515.632812 486 C 513.664062 485.292969 511.714844 484.542969 509.785156 483.742188 C 507.855469 482.941406 505.945312 482.09375 504.054688 481.203125 C 502.167969 480.308594 500.300781 479.367188 498.457031 478.382812 C 496.617188 477.398438 494.796875 476.367188 493.003906 475.292969 C 491.214844 474.21875 489.449219 473.101562 487.710938 471.9375 C 485.972656 470.777344 484.265625 469.574219 482.585938 468.328125 C 480.910156 467.082031 479.261719 465.796875 477.648438 464.472656 C 476.03125 463.144531 474.449219 461.78125 472.902344 460.375 C 471.351562 458.972656 469.839844 457.53125 468.363281 456.054688 C 466.886719 454.574219 465.445312 453.0625 464.042969 451.511719 C 462.636719 449.964844 461.273438 448.378906 459.949219 446.765625 C 458.621094 445.148438 457.335938 443.5 456.09375 441.820312 C 454.847656 440.144531 453.644531 438.433594 452.484375 436.695312 C 451.324219 434.957031 450.203125 433.191406 449.128906 431.398438 C 448.054688 429.605469 447.027344 427.789062 446.042969 425.945312 C 445.058594 424.101562 444.117188 422.234375 443.222656 420.34375 C 442.332031 418.453125 441.484375 416.542969 440.683594 414.613281 C 439.886719 412.679688 439.132812 410.730469 438.429688 408.761719 C 437.726562 406.792969 437.070312 404.808594 436.464844 402.808594 C 435.855469 400.808594 435.300781 398.796875 434.792969 396.765625 C 434.285156 394.738281 433.828125 392.699219 433.417969 390.648438 C 433.011719 388.601562 432.652344 386.539062 432.347656 384.472656 C 432.039062 382.40625 431.785156 380.332031 431.582031 378.25 C 431.375 376.171875 431.222656 374.085938 431.121094 371.996094 C 431.015625 369.910156 430.964844 367.820312 430.964844 365.730469 C 430.964844 363.640625 431.015625 361.550781 431.121094 359.460938 C 431.222656 357.375 431.375 355.289062 431.582031 353.210938 C 431.785156 351.128906 432.039062 349.054688 432.347656 346.988281 C 432.652344 344.917969 433.011719 342.859375 433.417969 340.808594 C 433.828125 338.761719 434.285156 336.722656 434.792969 334.691406 C 435.300781 332.664062 435.855469 330.652344 436.464844 328.652344 C 437.070312 326.648438 437.726562 324.664062 438.429688 322.699219 C 439.132812 320.730469 439.886719 318.78125 440.683594 316.847656 C 441.484375 314.917969 442.332031 313.007812 443.222656 311.117188 C 444.117188 309.226562 445.058594 307.359375 446.042969 305.515625 C 447.027344 303.671875 448.054688 301.855469 449.128906 300.0625 C 450.203125 298.269531 451.324219 296.503906 452.484375 294.765625 C 453.644531 293.027344 454.847656 291.316406 456.09375 289.636719 C 457.335938 287.960938 458.621094 286.3125 459.949219 284.695312 C 461.273438 283.078125 462.636719 281.496094 464.042969 279.949219 C 465.445312 278.398438 466.886719 276.886719 468.363281 275.40625 C 469.839844 273.929688 471.351562 272.488281 472.902344 271.085938 C 474.449219 269.679688 476.03125 268.316406 477.648438 266.988281 C 479.261719 265.664062 480.910156 264.378906 482.585938 263.132812 C 484.265625 261.886719 485.972656 260.683594 487.710938 259.523438 C 489.449219 258.359375 491.214844 257.242188 493.003906 256.167969 C 494.796875 255.09375 496.617188 254.0625 498.457031 253.078125 C 500.300781 252.09375 502.167969 251.152344 504.054688 250.257812 C 505.945312 249.363281 507.855469 248.519531 509.785156 247.71875 C 511.714844 246.917969 513.664062 246.167969 515.632812 245.460938 C 517.597656 244.757812 519.582031 244.101562 521.582031 243.496094 C 523.582031 242.886719 525.59375 242.332031 527.621094 241.824219 C 529.648438 241.316406 531.6875 240.855469 533.738281 240.449219 C 535.785156 240.042969 537.84375 239.683594 539.910156 239.378906 C 541.980469 239.070312 544.050781 238.816406 546.132812 238.609375 C 548.210938 238.40625 550.292969 238.25 552.382812 238.148438 C 554.46875 238.046875 556.558594 237.996094 558.648438 237.996094 C 560.734375 237.996094 562.824219 238.046875 564.910156 238.148438 C 567 238.25 569.082031 238.40625 571.160156 238.609375 C 573.242188 238.816406 575.3125 239.070312 577.382812 239.378906 C 579.449219 239.683594 581.507812 240.042969 583.554688 240.449219 C 585.605469 240.855469 587.644531 241.316406 589.671875 241.824219 C 591.699219 242.332031 593.710938 242.886719 595.710938 243.496094 C 597.710938 244.101562 599.695312 244.757812 601.660156 245.460938 C 603.628906 246.167969 605.578125 246.917969 607.507812 247.71875 C 609.4375 248.519531 611.347656 249.363281 613.238281 250.257812 C 615.125 251.152344 616.992188 252.09375 618.835938 253.078125 C 620.679688 254.0625 622.496094 255.09375 624.289062 256.167969 C 626.078125 257.242188 627.84375 258.359375 629.582031 259.523438 C 631.320312 260.683594 633.027344 261.886719 634.707031 263.132812 C 636.382812 264.378906 638.03125 265.664062 639.648438 266.988281 C 641.261719 268.316406 642.84375 269.679688 644.390625 271.085938 C 645.941406 272.488281 647.453125 273.929688 648.929688 275.40625 C 650.410156 276.886719 651.847656 278.398438 653.253906 279.949219 C 654.65625 281.496094 656.019531 283.078125 657.34375 284.695312 C 658.671875 286.3125 659.957031 287.960938 661.199219 289.636719 C 662.445312 291.316406 663.648438 293.027344 664.808594 294.765625 C 665.96875 296.503906 667.089844 298.269531 668.164062 300.0625 C 669.238281 301.855469 670.265625 303.671875 671.25 305.515625 C 672.234375 307.359375 673.175781 309.226562 674.070312 311.117188 C 674.960938 313.007812 675.808594 314.917969 676.609375 316.847656 C 677.40625 318.78125 678.160156 320.730469 678.863281 322.699219 C 679.566406 324.664062 680.222656 326.648438 680.828125 328.652344 C 681.4375 330.652344 681.992188 332.664062 682.5 334.691406 C 683.007812 336.722656 683.464844 338.761719 683.875 340.808594 C 684.28125 342.859375 684.640625 344.917969 684.945312 346.988281 C 685.253906 349.054688 685.507812 351.128906 685.710938 353.210938 C 685.917969 355.289062 686.070312 357.375 686.175781 359.460938 C 686.277344 361.550781 686.328125 363.640625 686.328125 365.730469 Z M 686.328125 365.730469 " fill-opacity="1" fill-rule="nonzero"/><g clip-path="url(#589157c2b3)"><path fill="#ffcc00" d="M 558.644531 114.816406 C 549.382812 114.816406 541.925781 123.769531 541.925781 134.890625 L 541.925781 178.382812 C 541.925781 189.503906 549.382812 198.457031 558.644531 198.457031 C 567.910156 198.457031 575.367188 189.503906 575.367188 178.382812 L 575.367188 134.890625 C 575.367188 123.769531 567.910156 114.816406 558.644531 114.816406 Z M 558.644531 114.816406 " fill-opacity="1" fill-rule="nonzero"/></g><path fill="#ffcc00" d="M 735.992188 188.308594 C 729.445312 181.757812 717.84375 182.8125 709.984375 190.675781 L 679.242188 221.429688 C 671.382812 229.292969 670.328125 240.898438 676.878906 247.449219 C 683.429688 254.003906 695.027344 252.949219 702.890625 245.085938 L 733.628906 214.332031 C 741.488281 206.46875 742.542969 194.863281 735.992188 188.308594 Z M 735.992188 188.308594 " fill-opacity="1" fill-rule="nonzero"/><path fill="#ffcc00" d="M 809.453125 365.734375 C 809.453125 356.464844 800.503906 349.003906 789.390625 349.003906 L 745.914062 349.003906 C 734.800781 349.003906 725.851562 356.464844 725.851562 365.734375 C 725.851562 375 734.800781 382.460938 745.914062 382.460938 L 789.390625 382.460938 C 800.503906 382.460938 809.453125 375 809.453125 365.734375 Z M 809.453125 365.734375 " fill-opacity="1" fill-rule="nonzero"/><path fill="#ffcc00" d="M 735.992188 543.15625 C 742.542969 536.605469 741.488281 525 733.628906 517.136719 L 702.890625 486.382812 C 695.027344 478.519531 683.429688 477.460938 676.878906 484.015625 C 670.328125 490.570312 671.382812 502.175781 679.242188 510.039062 L 709.984375 540.792969 C 717.84375 548.65625 729.445312 549.710938 735.992188 543.15625 Z M 735.992188 543.15625 " fill-opacity="1" fill-rule="nonzero"/><path fill="#ffcc00" d="M 558.644531 616.648438 C 567.910156 616.648438 575.367188 607.695312 575.367188 596.574219 L 575.367188 553.082031 C 575.367188 541.960938 567.910156 533.011719 558.644531 533.011719 C 549.382812 533.011719 541.925781 541.960938 541.925781 553.082031 L 541.925781 596.574219 C 541.925781 607.695312 549.382812 616.648438 558.644531 616.648438 Z M 558.644531 616.648438 " fill-opacity="1" fill-rule="nonzero"/><path fill="#ffcc00" d="M 381.296875 543.15625 C 387.847656 549.710938 399.449219 548.65625 407.308594 540.792969 L 438.046875 510.039062 C 445.90625 502.175781 446.960938 490.570312 440.414062 484.015625 C 433.863281 477.460938 422.261719 478.519531 414.402344 486.382812 L 383.660156 517.136719 C 375.800781 525 374.746094 536.605469 381.296875 543.15625 Z M 381.296875 543.15625 " fill-opacity="1" fill-rule="nonzero"/><path fill="#ffcc00" d="M 307.835938 365.734375 C 307.835938 375 316.785156 382.460938 327.902344 382.460938 L 371.375 382.460938 C 382.492188 382.460938 391.4375 375 391.4375 365.734375 C 391.4375 356.464844 382.492188 349.003906 371.375 349.003906 L 327.902344 349.003906 C 316.785156 349.003906 307.835938 356.464844 307.835938 365.734375 Z M 307.835938 365.734375 " fill-opacity="1" fill-rule="nonzero"/><path fill="#ffcc00" d="M 381.296875 188.308594 C 374.746094 194.863281 375.800781 206.46875 383.660156 214.332031 L 414.402344 245.085938 C 422.261719 252.949219 433.863281 254.003906 440.414062 247.449219 C 446.960938 240.898438 445.90625 229.292969 438.046875 221.429688 L 407.308594 190.675781 C 399.449219 182.8125 387.847656 181.757812 381.296875 188.308594 Z M 381.296875 188.308594 " fill-opacity="1" fill-rule="nonzero"/><g clip-path="url(#5992c6b681)"><path fill="#c6e0f7" d="M 241.304688 316.4375 C 238.925781 316.4375 236.546875 316.496094 234.167969 316.613281 C 231.792969 316.726562 229.417969 316.902344 227.050781 317.136719 C 224.683594 317.371094 222.320312 317.660156 219.96875 318.011719 C 217.613281 318.359375 215.269531 318.765625 212.933594 319.230469 C 210.601562 319.695312 208.28125 320.21875 205.972656 320.796875 C 203.664062 321.375 201.371094 322.011719 199.09375 322.703125 C 196.816406 323.390625 194.554688 324.140625 192.316406 324.941406 C 190.074219 325.742188 187.855469 326.601562 185.65625 327.511719 C 183.457031 328.421875 181.28125 329.386719 179.132812 330.40625 C 176.980469 331.421875 174.855469 332.492188 172.757812 333.613281 C 170.65625 334.738281 168.585938 335.910156 166.546875 337.132812 C 164.503906 338.359375 162.496094 339.632812 160.515625 340.953125 C 158.539062 342.277344 156.59375 343.648438 154.679688 345.066406 C 152.769531 346.484375 150.894531 347.949219 149.054688 349.460938 C 147.214844 350.96875 145.414062 352.523438 143.648438 354.121094 C 141.886719 355.722656 140.164062 357.363281 138.480469 359.046875 C 136.796875 360.730469 135.15625 362.453125 133.558594 364.21875 C 131.960938 365.980469 130.40625 367.785156 128.898438 369.625 C 127.386719 371.464844 125.925781 373.339844 124.507812 375.253906 C 123.089844 377.164062 121.71875 379.113281 120.398438 381.089844 C 119.074219 383.070312 117.800781 385.082031 116.578125 387.125 C 115.355469 389.164062 114.183594 391.238281 113.058594 393.335938 C 111.9375 395.4375 110.867188 397.5625 109.851562 399.714844 C 108.832031 401.867188 107.871094 404.042969 106.960938 406.242188 C 106.046875 408.441406 105.191406 410.660156 104.390625 412.902344 C 103.589844 415.144531 102.84375 417.40625 102.152344 419.683594 C 101.460938 421.960938 100.828125 424.253906 100.25 426.566406 C 99.667969 428.875 99.148438 431.195312 98.683594 433.53125 C 98.21875 435.867188 97.8125 438.210938 97.464844 440.566406 C 97.113281 442.921875 96.824219 445.285156 96.589844 447.652344 C 96.355469 450.023438 96.183594 452.394531 96.066406 454.773438 C 95.949219 457.152344 95.890625 459.53125 95.890625 461.910156 C 95.921875 467.296875 96.253906 472.664062 96.882812 478.015625 C 42.039062 487.867188 0.894531 532.179688 0.894531 585.683594 C 0.894531 646.46875 54 695.402344 119.964844 695.402344 L 544.84375 695.402344 C 605.601562 695.402344 654.515625 649.914062 654.515625 593.414062 C 654.515625 537.269531 606.207031 492.023438 545.976562 491.460938 C 545.738281 489.578125 545.457031 487.703125 545.132812 485.835938 C 544.8125 483.96875 544.445312 482.105469 544.039062 480.253906 C 543.632812 478.402344 543.183594 476.5625 542.695312 474.730469 C 542.203125 472.898438 541.671875 471.078125 541.101562 469.269531 C 540.527344 467.460938 539.917969 465.667969 539.261719 463.890625 C 538.609375 462.109375 537.917969 460.34375 537.183594 458.59375 C 536.453125 456.847656 535.679688 455.113281 534.867188 453.402344 C 534.058594 451.6875 533.207031 449.992188 532.320312 448.316406 C 531.433594 446.640625 530.507812 444.988281 529.546875 443.351562 C 528.585938 441.71875 527.585938 440.109375 526.550781 438.519531 C 525.515625 436.929688 524.445312 435.367188 523.339844 433.824219 C 522.234375 432.285156 521.097656 430.769531 519.921875 429.28125 C 518.75 427.792969 517.542969 426.332031 516.300781 424.898438 C 515.0625 423.464844 513.789062 422.058594 512.488281 420.679688 C 511.183594 419.304688 509.851562 417.957031 508.488281 416.640625 C 507.121094 415.324219 505.730469 414.039062 504.308594 412.785156 C 502.886719 411.53125 501.4375 410.308594 499.960938 409.121094 C 498.480469 407.933594 496.980469 406.78125 495.449219 405.660156 C 493.921875 404.539062 492.367188 403.453125 490.789062 402.402344 C 489.210938 401.351562 487.609375 400.339844 485.984375 399.359375 C 484.363281 398.382812 482.714844 397.441406 481.050781 396.539062 C 479.382812 395.636719 477.699219 394.769531 475.992188 393.941406 C 474.285156 393.117188 472.5625 392.328125 470.824219 391.578125 C 469.082031 390.828125 467.324219 390.117188 465.550781 389.449219 C 463.777344 388.777344 461.992188 388.148438 460.191406 387.558594 C 458.386719 386.96875 456.574219 386.421875 454.746094 385.914062 C 452.921875 385.40625 451.085938 384.941406 449.238281 384.515625 C 447.390625 384.089844 445.535156 383.707031 443.667969 383.367188 C 441.804688 383.027344 439.933594 382.730469 438.054688 382.472656 C 436.175781 382.21875 434.292969 382.003906 432.40625 381.832031 C 430.519531 381.660156 428.628906 381.53125 426.734375 381.449219 C 424.84375 381.363281 422.949219 381.320312 421.050781 381.320312 C 412.097656 381.332031 403.246094 382.289062 394.5 384.191406 C 385.75 386.09375 377.300781 388.898438 369.148438 392.601562 C 367.597656 389.738281 365.953125 386.929688 364.210938 384.179688 C 362.472656 381.425781 360.640625 378.734375 358.722656 376.105469 C 356.800781 373.476562 354.796875 370.914062 352.703125 368.417969 C 350.613281 365.921875 348.4375 363.5 346.183594 361.152344 C 343.929688 358.800781 341.597656 356.53125 339.191406 354.339844 C 336.785156 352.144531 334.304688 350.039062 331.757812 348.011719 C 329.207031 345.984375 326.59375 344.046875 323.914062 342.195312 C 321.234375 340.347656 318.5 338.589844 315.699219 336.921875 C 312.902344 335.253906 310.054688 333.683594 307.152344 332.210938 C 304.25 330.734375 301.300781 329.359375 298.304688 328.082031 C 295.3125 326.804688 292.277344 325.628906 289.203125 324.558594 C 286.128906 323.484375 283.023438 322.515625 279.886719 321.652344 C 276.746094 320.789062 273.582031 320.03125 270.394531 319.378906 C 267.203125 318.726562 263.996094 318.183594 260.769531 317.746094 C 257.542969 317.308594 254.308594 316.984375 251.058594 316.765625 C 247.8125 316.546875 244.558594 316.4375 241.304688 316.4375 Z M 241.304688 316.4375 " fill-opacity="1" fill-rule="nonzero"/></g></svg>