<svg xmlns="http://www.w3.org/2000/svg" xmlns:xlink="http://www.w3.org/1999/xlink" width="1080" zoomAndPan="magnify" viewBox="0 0 810 809.999993" height="1080" preserveAspectRatio="xMidYMid meet" version="1.0"><path fill="#86a3bf" d="M 397.683594 188.851562 C 395.308594 188.851562 392.933594 188.910156 390.5625 189.027344 C 388.191406 189.144531 385.824219 189.320312 383.460938 189.550781 C 381.097656 189.785156 378.742188 190.074219 376.390625 190.421875 C 374.042969 190.773438 371.703125 191.175781 369.375 191.640625 C 367.046875 192.105469 364.730469 192.625 362.425781 193.199219 C 360.125 193.777344 357.835938 194.410156 355.5625 195.097656 C 353.289062 195.789062 351.035156 196.53125 348.800781 197.332031 C 346.566406 198.132812 344.351562 198.984375 342.15625 199.894531 C 339.964844 200.804688 337.792969 201.765625 335.644531 202.777344 C 333.5 203.792969 331.378906 204.859375 329.285156 205.980469 C 327.191406 207.097656 325.125 208.269531 323.089844 209.488281 C 321.050781 210.710938 319.046875 211.980469 317.070312 213.296875 C 315.097656 214.617188 313.15625 215.984375 311.25 217.398438 C 309.34375 218.808594 307.46875 220.269531 305.636719 221.777344 C 303.800781 223.28125 302 224.832031 300.242188 226.425781 C 298.484375 228.019531 296.765625 229.65625 295.085938 231.335938 C 293.40625 233.011719 291.769531 234.730469 290.175781 236.492188 C 288.578125 238.25 287.027344 240.046875 285.523438 241.878906 C 284.015625 243.714844 282.554688 245.585938 281.140625 247.492188 C 279.726562 249.398438 278.359375 251.339844 277.039062 253.3125 C 275.722656 255.285156 274.449219 257.292969 273.230469 259.328125 C 272.007812 261.363281 270.839844 263.425781 269.71875 265.519531 C 268.601562 267.613281 267.535156 269.734375 266.519531 271.878906 C 265.503906 274.023438 264.539062 276.195312 263.632812 278.386719 C 262.722656 280.582031 261.867188 282.792969 261.070312 285.027344 C 260.269531 287.265625 259.523438 289.515625 258.835938 291.789062 C 258.144531 294.058594 257.511719 296.347656 256.9375 298.648438 C 256.359375 300.953125 255.839844 303.265625 255.375 305.59375 C 254.914062 307.921875 254.507812 310.261719 254.15625 312.609375 C 253.808594 314.957031 253.519531 317.3125 253.285156 319.671875 C 253.054688 322.035156 252.878906 324.402344 252.761719 326.773438 C 252.644531 329.144531 252.585938 331.515625 252.585938 333.890625 C 252.621094 339.257812 252.949219 344.609375 253.578125 349.945312 C 198.855469 359.765625 157.800781 403.945312 157.800781 457.285156 C 157.800781 517.886719 210.789062 566.675781 276.609375 566.675781 L 700.554688 566.675781 C 761.183594 566.675781 809.988281 521.324219 809.988281 464.996094 C 809.988281 409.019531 761.785156 363.910156 701.6875 363.347656 C 701.449219 361.472656 701.167969 359.605469 700.847656 357.742188 C 700.523438 355.878906 700.160156 354.023438 699.753906 352.175781 C 699.347656 350.332031 698.902344 348.496094 698.410156 346.667969 C 697.921875 344.84375 697.394531 343.027344 696.820312 341.226562 C 696.25 339.421875 695.640625 337.636719 694.988281 335.859375 C 694.335938 334.085938 693.644531 332.328125 692.914062 330.582031 C 692.183594 328.839844 691.414062 327.113281 690.601562 325.40625 C 689.792969 323.695312 688.945312 322.007812 688.0625 320.335938 C 687.175781 318.664062 686.253906 317.015625 685.292969 315.386719 C 684.332031 313.757812 683.335938 312.152344 682.304688 310.566406 C 681.273438 308.984375 680.203125 307.425781 679.101562 305.886719 C 677.996094 304.351562 676.859375 302.84375 675.691406 301.359375 C 674.519531 299.875 673.3125 298.417969 672.078125 296.988281 C 670.839844 295.558594 669.570312 294.15625 668.269531 292.78125 C 666.972656 291.410156 665.640625 290.066406 664.277344 288.753906 C 662.917969 287.441406 661.527344 286.160156 660.109375 284.910156 C 658.691406 283.660156 657.246094 282.445312 655.769531 281.257812 C 654.296875 280.074219 652.796875 278.921875 651.269531 277.804688 C 649.746094 276.691406 648.195312 275.609375 646.621094 274.5625 C 645.046875 273.511719 643.449219 272.503906 641.828125 271.527344 C 640.207031 270.554688 638.566406 269.613281 636.902344 268.714844 C 635.238281 267.8125 633.558594 266.949219 631.855469 266.125 C 630.152344 265.300781 628.433594 264.515625 626.699219 263.769531 C 624.960938 263.019531 623.207031 262.3125 621.4375 261.644531 C 619.667969 260.976562 617.886719 260.347656 616.085938 259.761719 C 614.289062 259.171875 612.480469 258.625 610.65625 258.121094 C 608.835938 257.613281 607.003906 257.152344 605.160156 256.726562 C 603.316406 256.304688 601.464844 255.921875 599.605469 255.582031 C 597.742188 255.242188 595.875 254.945312 594.003906 254.691406 C 592.128906 254.433594 590.25 254.222656 588.367188 254.050781 C 586.484375 253.882812 584.597656 253.753906 582.707031 253.667969 C 580.816406 253.582031 578.925781 253.539062 577.035156 253.539062 C 568.101562 253.554688 559.269531 254.507812 550.539062 256.402344 C 541.8125 258.300781 533.378906 261.097656 525.246094 264.789062 C 523.699219 261.933594 522.054688 259.136719 520.320312 256.390625 C 518.585938 253.648438 516.757812 250.964844 514.84375 248.339844 C 512.925781 245.71875 510.925781 243.164062 508.835938 240.675781 C 506.75 238.191406 504.582031 235.773438 502.332031 233.433594 C 500.082031 231.089844 497.757812 228.828125 495.355469 226.640625 C 492.953125 224.457031 490.480469 222.351562 487.9375 220.332031 C 485.394531 218.3125 482.785156 216.378906 480.113281 214.535156 C 477.4375 212.691406 474.707031 210.9375 471.917969 209.277344 C 469.125 207.617188 466.28125 206.050781 463.386719 204.578125 C 460.488281 203.109375 457.546875 201.738281 454.558594 200.464844 C 451.570312 199.191406 448.542969 198.019531 445.476562 196.949219 C 442.410156 195.878906 439.3125 194.914062 436.179688 194.054688 C 433.046875 193.191406 429.890625 192.4375 426.707031 191.785156 C 423.527344 191.136719 420.324219 190.59375 417.105469 190.160156 C 413.886719 189.726562 410.65625 189.398438 407.417969 189.179688 C 404.175781 188.960938 400.929688 188.851562 397.683594 188.851562 Z M 397.683594 188.851562 " fill-opacity="1" fill-rule="nonzero"/><path fill="#c6e0f7" d="M 239.945312 243.433594 C 237.570312 243.433594 235.195312 243.492188 232.824219 243.609375 C 230.453125 243.722656 228.085938 243.898438 225.722656 244.132812 C 223.359375 244.363281 221.003906 244.65625 218.652344 245.003906 C 216.304688 245.351562 213.964844 245.757812 211.636719 246.21875 C 209.308594 246.683594 206.992188 247.203125 204.6875 247.78125 C 202.382812 248.355469 200.097656 248.988281 197.824219 249.679688 C 195.550781 250.367188 193.296875 251.113281 191.0625 251.914062 C 188.828125 252.710938 186.613281 253.566406 184.417969 254.472656 C 182.222656 255.382812 180.054688 256.34375 177.90625 257.359375 C 175.761719 258.375 173.640625 259.441406 171.546875 260.558594 C 169.453125 261.679688 167.386719 262.847656 165.347656 264.070312 C 163.3125 265.289062 161.308594 266.558594 159.332031 267.878906 C 157.359375 269.195312 155.417969 270.5625 153.511719 271.976562 C 151.601562 273.390625 149.730469 274.851562 147.894531 276.355469 C 146.058594 277.863281 144.261719 279.410156 142.503906 281.007812 C 140.742188 282.601562 139.023438 284.234375 137.34375 285.914062 C 135.667969 287.59375 134.03125 289.3125 132.433594 291.070312 C 130.839844 292.828125 129.289062 294.625 127.785156 296.460938 C 126.277344 298.296875 124.816406 300.167969 123.402344 302.074219 C 121.988281 303.980469 120.621094 305.917969 119.300781 307.894531 C 117.980469 309.867188 116.710938 311.871094 115.492188 313.90625 C 114.269531 315.941406 113.101562 318.007812 111.980469 320.101562 C 110.863281 322.195312 109.792969 324.3125 108.777344 326.460938 C 107.765625 328.605469 106.800781 330.773438 105.894531 332.96875 C 104.984375 335.160156 104.128906 337.375 103.332031 339.609375 C 102.53125 341.84375 101.785156 344.097656 101.097656 346.367188 C 100.40625 348.640625 99.773438 350.925781 99.195312 353.230469 C 98.621094 355.53125 98.101562 357.847656 97.636719 360.175781 C 97.171875 362.503906 96.765625 364.839844 96.417969 367.1875 C 96.070312 369.535156 95.78125 371.890625 95.546875 374.253906 C 95.316406 376.617188 95.140625 378.980469 95.023438 381.351562 C 94.90625 383.722656 94.847656 386.097656 94.847656 388.46875 C 94.882812 393.839844 95.210938 399.191406 95.835938 404.523438 C 41.113281 414.347656 0.0585938 458.527344 0.0585938 511.867188 C 0.0585938 572.46875 53.050781 621.253906 118.871094 621.253906 L 542.816406 621.253906 C 603.441406 621.253906 652.25 575.90625 652.25 519.578125 C 652.25 463.601562 604.042969 418.492188 543.945312 417.929688 C 543.710938 416.054688 543.429688 414.183594 543.105469 412.320312 C 542.785156 410.457031 542.421875 408.605469 542.015625 406.757812 C 541.609375 404.910156 541.160156 403.074219 540.671875 401.25 C 540.183594 399.421875 539.652344 397.609375 539.082031 395.804688 C 538.511719 394.003906 537.902344 392.214844 537.25 390.441406 C 536.597656 388.664062 535.90625 386.90625 535.175781 385.164062 C 534.445312 383.417969 533.671875 381.691406 532.863281 379.984375 C 532.054688 378.277344 531.207031 376.585938 530.320312 374.914062 C 529.4375 373.246094 528.515625 371.59375 527.554688 369.964844 C 526.59375 368.339844 525.597656 366.730469 524.566406 365.148438 C 523.53125 363.5625 522.464844 362.003906 521.363281 360.46875 C 520.257812 358.933594 519.121094 357.421875 517.949219 355.9375 C 516.78125 354.453125 515.574219 352.996094 514.339844 351.566406 C 513.101562 350.136719 511.832031 348.734375 510.53125 347.363281 C 509.230469 345.988281 507.902344 344.648438 506.539062 343.335938 C 505.179688 342.023438 503.789062 340.742188 502.371094 339.492188 C 500.953125 338.242188 499.503906 337.023438 498.03125 335.839844 C 496.558594 334.652344 495.058594 333.503906 493.53125 332.386719 C 492.007812 331.269531 490.457031 330.1875 488.882812 329.140625 C 487.304688 328.09375 485.707031 327.082031 484.089844 326.109375 C 482.46875 325.132812 480.828125 324.195312 479.164062 323.292969 C 477.5 322.394531 475.820312 321.53125 474.117188 320.707031 C 472.414062 319.882812 470.695312 319.09375 468.957031 318.347656 C 467.222656 317.601562 465.46875 316.894531 463.699219 316.222656 C 461.929688 315.554688 460.144531 314.929688 458.347656 314.339844 C 456.550781 313.753906 454.742188 313.207031 452.917969 312.699219 C 451.097656 312.195312 449.265625 311.730469 447.421875 311.308594 C 445.578125 310.882812 443.726562 310.503906 441.863281 310.164062 C 440.003906 309.824219 438.136719 309.527344 436.261719 309.269531 C 434.390625 309.015625 432.511719 308.800781 430.628906 308.632812 C 428.742188 308.460938 426.855469 308.332031 424.96875 308.246094 C 423.078125 308.164062 421.1875 308.121094 419.296875 308.121094 C 410.363281 308.132812 401.53125 309.085938 392.800781 310.984375 C 384.070312 312.878906 375.640625 315.675781 367.507812 319.371094 C 365.957031 316.515625 364.316406 313.714844 362.582031 310.972656 C 360.847656 308.226562 359.019531 305.542969 357.105469 302.921875 C 355.1875 300.300781 353.1875 297.746094 351.097656 295.257812 C 349.011719 292.769531 346.84375 290.355469 344.59375 288.011719 C 342.34375 285.671875 340.015625 283.40625 337.613281 281.222656 C 335.214844 279.035156 332.742188 276.933594 330.199219 274.914062 C 327.652344 272.894531 325.046875 270.960938 322.375 269.117188 C 319.699219 267.269531 316.96875 265.519531 314.175781 263.855469 C 311.386719 262.195312 308.542969 260.628906 305.648438 259.160156 C 302.75 257.6875 299.808594 256.316406 296.820312 255.042969 C 293.832031 253.769531 290.804688 252.601562 287.738281 251.53125 C 284.671875 250.460938 281.570312 249.496094 278.441406 248.632812 C 275.308594 247.769531 272.152344 247.015625 268.96875 246.367188 C 265.785156 245.714844 262.585938 245.175781 259.367188 244.738281 C 256.148438 244.304688 252.917969 243.976562 249.675781 243.761719 C 246.4375 243.542969 243.191406 243.433594 239.941406 243.433594 Z M 239.945312 243.433594 " fill-opacity="1" fill-rule="nonzero"/></svg>