<svg xmlns="http://www.w3.org/2000/svg" xmlns:xlink="http://www.w3.org/1999/xlink" width="1080" zoomAndPan="magnify" viewBox="0 0 810 809.999993" height="1080" preserveAspectRatio="xMidYMid meet" version="1.0"><path fill="#86a3bf" d="M 397.683594 105.441406 C 395.308594 105.441406 392.933594 105.5 390.5625 105.617188 C 388.191406 105.734375 385.824219 105.90625 383.460938 106.140625 C 381.097656 106.375 378.742188 106.664062 376.390625 107.011719 C 374.042969 107.359375 371.703125 107.765625 369.375 108.230469 C 367.046875 108.695312 364.730469 109.214844 362.425781 109.789062 C 360.125 110.367188 357.835938 111 355.5625 111.691406 C 353.289062 112.378906 351.035156 113.125 348.800781 113.925781 C 346.566406 114.722656 344.351562 115.578125 342.15625 116.488281 C 339.964844 117.394531 337.792969 118.355469 335.644531 119.371094 C 333.5 120.386719 331.378906 121.453125 329.285156 122.574219 C 327.191406 123.695312 325.125 124.863281 323.089844 126.085938 C 321.050781 127.304688 319.046875 128.574219 317.070312 129.894531 C 315.097656 131.214844 313.15625 132.578125 311.25 133.996094 C 309.34375 135.410156 307.46875 136.867188 305.636719 138.375 C 303.800781 139.882812 302 141.433594 300.242188 143.027344 C 298.484375 144.621094 296.765625 146.257812 295.085938 147.9375 C 293.40625 149.617188 291.769531 151.335938 290.175781 153.09375 C 288.578125 154.851562 287.027344 156.652344 285.523438 158.484375 C 284.015625 160.320312 282.554688 162.191406 281.140625 164.097656 C 279.726562 166.007812 278.359375 167.949219 277.039062 169.921875 C 275.722656 171.894531 274.449219 173.902344 273.230469 175.9375 C 272.007812 177.972656 270.839844 180.039062 269.71875 182.132812 C 268.601562 184.226562 267.535156 186.347656 266.519531 188.492188 C 265.503906 190.640625 264.539062 192.808594 263.632812 195.003906 C 262.722656 197.199219 261.867188 199.410156 261.070312 201.648438 C 260.269531 203.882812 259.523438 206.136719 258.835938 208.410156 C 258.144531 210.679688 257.511719 212.96875 256.9375 215.273438 C 256.359375 217.574219 255.839844 219.890625 255.375 222.21875 C 254.914062 224.546875 254.507812 226.886719 254.15625 229.234375 C 253.808594 231.585938 253.519531 233.941406 253.285156 236.300781 C 253.054688 238.664062 252.878906 241.03125 252.761719 243.402344 C 252.644531 245.777344 252.585938 248.148438 252.585938 250.523438 C 252.621094 255.894531 252.949219 261.246094 253.578125 266.582031 C 198.855469 276.40625 157.800781 320.601562 157.800781 373.957031 C 157.800781 434.578125 210.789062 483.378906 276.609375 483.378906 L 700.554688 483.378906 C 761.183594 483.378906 809.988281 438.015625 809.988281 381.671875 C 809.988281 325.675781 761.785156 280.554688 701.6875 279.992188 C 701.449219 278.113281 701.167969 276.246094 700.847656 274.382812 C 700.523438 272.519531 700.160156 270.664062 699.753906 268.816406 C 699.347656 266.96875 698.902344 265.132812 698.410156 263.304688 C 697.921875 261.480469 697.394531 259.664062 696.820312 257.863281 C 696.25 256.058594 695.640625 254.269531 694.988281 252.496094 C 694.335938 250.71875 693.644531 248.960938 692.914062 247.214844 C 692.183594 245.472656 691.414062 243.746094 690.601562 242.035156 C 689.792969 240.324219 688.945312 238.636719 688.0625 236.964844 C 687.175781 235.292969 686.253906 233.644531 685.292969 232.015625 C 684.332031 230.386719 683.335938 228.777344 682.304688 227.195312 C 681.273438 225.609375 680.203125 224.050781 679.101562 222.511719 C 677.996094 220.976562 676.859375 219.464844 675.691406 217.980469 C 674.519531 216.496094 673.3125 215.039062 672.078125 213.609375 C 670.839844 212.179688 669.570312 210.777344 668.269531 209.402344 C 666.972656 208.03125 665.640625 206.6875 664.277344 205.375 C 662.917969 204.0625 661.527344 202.78125 660.109375 201.527344 C 658.691406 200.277344 657.246094 199.0625 655.769531 197.875 C 654.296875 196.691406 652.796875 195.539062 651.269531 194.421875 C 649.746094 193.304688 648.195312 192.222656 646.621094 191.175781 C 645.046875 190.128906 643.449219 189.117188 641.828125 188.140625 C 640.207031 187.167969 638.566406 186.230469 636.902344 185.328125 C 635.238281 184.425781 633.558594 183.5625 631.855469 182.738281 C 630.152344 181.914062 628.433594 181.128906 626.699219 180.378906 C 624.960938 179.632812 623.207031 178.925781 621.4375 178.257812 C 619.667969 177.585938 617.886719 176.960938 616.085938 176.371094 C 614.289062 175.785156 612.480469 175.238281 610.65625 174.730469 C 608.835938 174.226562 607.003906 173.761719 605.160156 173.335938 C 603.316406 172.914062 601.464844 172.53125 599.605469 172.191406 C 597.742188 171.851562 595.875 171.554688 594.003906 171.300781 C 592.128906 171.042969 590.25 170.832031 588.367188 170.660156 C 586.484375 170.488281 584.597656 170.363281 582.707031 170.277344 C 580.816406 170.191406 578.925781 170.148438 577.035156 170.148438 C 568.101562 170.160156 559.269531 171.117188 550.539062 173.015625 C 541.8125 174.910156 533.378906 177.707031 525.246094 181.402344 C 523.699219 178.546875 522.054688 175.746094 520.320312 173 C 518.585938 170.253906 516.757812 167.570312 514.84375 164.949219 C 512.925781 162.324219 510.925781 159.769531 508.835938 157.28125 C 506.75 154.792969 504.582031 152.378906 502.332031 150.035156 C 500.082031 147.691406 497.757812 145.429688 495.355469 143.242188 C 492.953125 141.054688 490.480469 138.953125 487.9375 136.929688 C 485.394531 134.910156 482.785156 132.976562 480.113281 131.132812 C 477.4375 129.289062 474.707031 127.535156 471.917969 125.871094 C 469.125 124.210938 466.28125 122.644531 463.386719 121.171875 C 460.488281 119.703125 457.546875 118.328125 454.558594 117.058594 C 451.570312 115.785156 448.542969 114.613281 445.476562 113.542969 C 442.410156 112.472656 439.3125 111.503906 436.179688 110.644531 C 433.046875 109.78125 429.890625 109.027344 426.707031 108.375 C 423.527344 107.726562 420.324219 107.183594 417.105469 106.75 C 413.886719 106.3125 410.65625 105.988281 407.417969 105.769531 C 404.175781 105.550781 400.929688 105.441406 397.683594 105.441406 Z M 397.683594 105.441406 " fill-opacity="1" fill-rule="nonzero"/><path fill="#c6e0f7" d="M 239.945312 160.039062 C 237.570312 160.039062 235.195312 160.097656 232.824219 160.214844 C 230.453125 160.328125 228.085938 160.503906 225.722656 160.738281 C 223.359375 160.96875 221.003906 161.261719 218.652344 161.609375 C 216.304688 161.957031 213.964844 162.363281 211.636719 162.828125 C 209.308594 163.289062 206.992188 163.808594 204.6875 164.386719 C 202.382812 164.964844 200.097656 165.597656 197.824219 166.285156 C 195.550781 166.976562 193.296875 167.71875 191.0625 168.519531 C 188.828125 169.320312 186.613281 170.175781 184.417969 171.082031 C 182.222656 171.992188 180.054688 172.953125 177.90625 173.96875 C 175.761719 174.984375 173.640625 176.050781 171.546875 177.171875 C 169.453125 178.289062 167.386719 179.460938 165.347656 180.679688 C 163.3125 181.902344 161.308594 183.171875 159.332031 184.492188 C 157.359375 185.808594 155.417969 187.175781 153.511719 188.589844 C 151.601562 190.003906 149.730469 191.464844 147.894531 192.972656 C 146.058594 194.476562 144.261719 196.027344 142.503906 197.625 C 140.742188 199.21875 139.023438 200.855469 137.34375 202.535156 C 135.667969 204.210938 134.03125 205.929688 132.433594 207.691406 C 130.839844 209.449219 129.289062 211.246094 127.785156 213.082031 C 126.277344 214.917969 124.816406 216.789062 123.402344 218.695312 C 121.988281 220.601562 120.621094 222.542969 119.300781 224.519531 C 117.980469 226.492188 116.710938 228.496094 115.492188 230.535156 C 114.269531 232.570312 113.101562 234.636719 111.980469 236.730469 C 110.863281 238.824219 109.792969 240.945312 108.777344 243.089844 C 107.765625 245.238281 106.800781 247.40625 105.894531 249.601562 C 104.984375 251.792969 104.128906 254.007812 103.332031 256.242188 C 102.53125 258.480469 101.785156 260.734375 101.097656 263.003906 C 100.40625 265.277344 99.773438 267.566406 99.195312 269.867188 C 98.621094 272.171875 98.101562 274.488281 97.636719 276.816406 C 97.171875 279.144531 96.765625 281.484375 96.417969 283.832031 C 96.070312 286.179688 95.78125 288.535156 95.546875 290.898438 C 95.316406 293.261719 95.140625 295.628906 95.023438 298 C 94.90625 300.371094 94.847656 302.746094 94.847656 305.121094 C 94.882812 310.492188 95.210938 315.84375 95.835938 321.179688 C 41.113281 331.003906 0.0585938 375.199219 0.0585938 428.554688 C 0.0585938 489.175781 53.050781 537.976562 118.871094 537.976562 L 542.816406 537.976562 C 603.441406 537.976562 652.25 492.613281 652.25 436.265625 C 652.25 380.273438 604.042969 335.148438 543.945312 334.585938 C 543.710938 332.710938 543.429688 330.84375 543.105469 328.976562 C 542.785156 327.113281 542.421875 325.261719 542.015625 323.414062 C 541.609375 321.566406 541.160156 319.730469 540.671875 317.902344 C 540.183594 316.074219 539.652344 314.261719 539.082031 312.457031 C 538.511719 310.65625 537.902344 308.867188 537.25 307.089844 C 536.597656 305.316406 535.90625 303.554688 535.175781 301.8125 C 534.445312 300.066406 533.671875 298.339844 532.863281 296.632812 C 532.054688 294.921875 531.207031 293.234375 530.320312 291.5625 C 529.4375 289.890625 528.515625 288.242188 527.554688 286.609375 C 526.59375 284.980469 525.597656 283.375 524.566406 281.789062 C 523.53125 280.207031 522.464844 278.644531 521.363281 277.109375 C 520.257812 275.574219 519.121094 274.0625 517.949219 272.578125 C 516.78125 271.09375 515.574219 269.636719 514.339844 268.207031 C 513.101562 266.773438 511.832031 265.375 510.53125 264 C 509.230469 262.628906 507.902344 261.285156 506.539062 259.972656 C 505.179688 258.65625 503.789062 257.375 502.371094 256.125 C 500.953125 254.875 499.503906 253.65625 498.03125 252.472656 C 496.558594 251.289062 495.058594 250.136719 493.53125 249.019531 C 492.007812 247.902344 490.457031 246.820312 488.882812 245.773438 C 487.304688 244.726562 485.707031 243.714844 484.089844 242.738281 C 482.46875 241.761719 480.828125 240.824219 479.164062 239.925781 C 477.5 239.023438 475.820312 238.160156 474.117188 237.335938 C 472.414062 236.511719 470.695312 235.722656 468.957031 234.976562 C 467.222656 234.230469 465.46875 233.519531 463.699219 232.851562 C 461.929688 232.183594 460.144531 231.554688 458.347656 230.96875 C 456.550781 230.378906 454.742188 229.832031 452.917969 229.328125 C 451.097656 228.820312 449.265625 228.355469 447.421875 227.933594 C 445.578125 227.511719 443.726562 227.128906 441.863281 226.789062 C 440.003906 226.449219 438.136719 226.152344 436.261719 225.894531 C 434.390625 225.640625 432.511719 225.429688 430.628906 225.257812 C 428.742188 225.085938 426.855469 224.957031 424.96875 224.875 C 423.078125 224.789062 421.1875 224.746094 419.296875 224.746094 C 410.363281 224.757812 401.53125 225.714844 392.800781 227.609375 C 384.070312 229.507812 375.640625 232.304688 367.507812 236 C 365.957031 233.144531 364.316406 230.34375 362.582031 227.597656 C 360.847656 224.851562 359.019531 222.167969 357.105469 219.546875 C 355.1875 216.921875 353.1875 214.367188 351.097656 211.878906 C 349.011719 209.390625 346.84375 206.976562 344.59375 204.632812 C 342.34375 202.289062 340.015625 200.023438 337.613281 197.839844 C 335.214844 195.652344 332.742188 193.546875 330.199219 191.527344 C 327.652344 189.507812 325.046875 187.574219 322.375 185.730469 C 319.699219 183.882812 316.96875 182.128906 314.175781 180.46875 C 311.386719 178.808594 308.542969 177.242188 305.648438 175.769531 C 302.75 174.296875 299.808594 172.925781 296.820312 171.652344 C 293.832031 170.378906 290.804688 169.207031 287.738281 168.136719 C 284.671875 167.066406 281.570312 166.101562 278.441406 165.242188 C 275.308594 164.378906 272.152344 163.621094 268.96875 162.972656 C 265.785156 162.324219 262.585938 161.78125 259.367188 161.34375 C 256.148438 160.910156 252.917969 160.582031 249.675781 160.367188 C 246.4375 160.148438 243.191406 160.039062 239.941406 160.039062 Z M 239.945312 160.039062 " fill-opacity="1" fill-rule="nonzero"/><path fill="#3981bf" d="M 169.910156 469.140625 C 158.890625 481.566406 129.058594 506.472656 120.058594 540.378906 C 119.804688 541.316406 119.601562 542.269531 119.441406 543.226562 C 119.28125 544.1875 119.171875 545.152344 119.109375 546.125 C 119.042969 547.097656 119.027344 548.066406 119.058594 549.039062 C 119.09375 550.011719 119.171875 550.980469 119.296875 551.945312 C 119.425781 552.910156 119.601562 553.867188 119.820312 554.816406 C 120.042969 555.761719 120.308594 556.699219 120.621094 557.621094 C 120.933594 558.542969 121.292969 559.445312 121.695312 560.332031 C 122.09375 561.21875 122.539062 562.082031 123.027344 562.925781 C 123.511719 563.769531 124.039062 564.585938 124.605469 565.375 C 125.171875 566.167969 125.777344 566.929688 126.417969 567.660156 C 127.0625 568.390625 127.738281 569.089844 128.445312 569.753906 C 129.15625 570.421875 129.898438 571.050781 130.671875 571.640625 C 131.441406 572.234375 132.242188 572.789062 133.070312 573.300781 C 133.894531 573.816406 134.746094 574.289062 135.617188 574.71875 C 136.492188 575.148438 137.382812 575.535156 138.292969 575.878906 C 139.203125 576.21875 140.128906 576.519531 141.070312 576.769531 C 142.011719 577.023438 142.960938 577.226562 143.921875 577.386719 C 144.878906 577.542969 145.847656 577.65625 146.816406 577.71875 C 147.789062 577.78125 148.761719 577.796875 149.734375 577.765625 C 150.707031 577.734375 151.675781 577.65625 152.640625 577.527344 C 153.605469 577.402344 154.5625 577.226562 155.507812 577.003906 C 156.457031 576.785156 157.390625 576.519531 158.3125 576.207031 C 159.234375 575.890625 160.140625 575.535156 161.023438 575.132812 C 161.910156 574.730469 162.777344 574.289062 163.621094 573.800781 C 164.460938 573.316406 165.28125 572.789062 166.070312 572.222656 C 166.863281 571.652344 167.621094 571.050781 168.355469 570.410156 C 169.085938 569.765625 169.785156 569.089844 170.449219 568.378906 C 171.117188 567.671875 171.746094 566.929688 172.335938 566.15625 C 172.929688 565.386719 173.484375 564.585938 173.996094 563.757812 C 174.511719 562.933594 174.984375 562.082031 175.414062 561.210938 C 175.84375 560.335938 176.230469 559.445312 176.574219 558.535156 C 176.914062 557.625 177.214844 556.699219 177.464844 555.757812 C 177.53125 555.511719 177.59375 555.265625 177.65625 555.015625 C 186.882812 519.40625 173.21875 485.300781 169.910156 469.140625 Z M 169.910156 469.140625 " fill-opacity="1" fill-rule="nonzero"/><path fill="#3981bf" d="M 305.761719 469.140625 C 294.738281 481.566406 264.90625 506.472656 255.90625 540.378906 C 255.652344 541.316406 255.449219 542.269531 255.289062 543.226562 C 255.132812 544.1875 255.019531 545.152344 254.957031 546.125 C 254.890625 547.097656 254.875 548.066406 254.910156 549.039062 C 254.941406 550.011719 255.019531 550.980469 255.148438 551.945312 C 255.273438 552.910156 255.449219 553.867188 255.667969 554.816406 C 255.890625 555.761719 256.15625 556.699219 256.46875 557.621094 C 256.78125 558.542969 257.140625 559.445312 257.542969 560.332031 C 257.941406 561.21875 258.386719 562.082031 258.875 562.925781 C 259.359375 563.769531 259.886719 564.585938 260.453125 565.375 C 261.019531 566.167969 261.625 566.929688 262.265625 567.660156 C 262.910156 568.390625 263.585938 569.089844 264.296875 569.753906 C 265.003906 570.421875 265.746094 571.050781 266.519531 571.640625 C 267.292969 572.234375 268.089844 572.789062 268.917969 573.300781 C 269.742188 573.816406 270.59375 574.289062 271.464844 574.71875 C 272.339844 575.148438 273.230469 575.535156 274.140625 575.878906 C 275.050781 576.21875 275.976562 576.519531 276.917969 576.769531 C 277.859375 577.023438 278.808594 577.226562 279.769531 577.386719 C 280.730469 577.542969 281.695312 577.65625 282.664062 577.71875 C 283.636719 577.78125 284.609375 577.796875 285.582031 577.765625 C 286.554688 577.734375 287.523438 577.65625 288.488281 577.527344 C 289.453125 577.402344 290.410156 577.226562 291.355469 577.007812 C 292.304688 576.785156 293.238281 576.519531 294.160156 576.207031 C 295.082031 575.890625 295.988281 575.535156 296.875 575.132812 C 297.761719 574.730469 298.625 574.289062 299.46875 573.800781 C 300.308594 573.316406 301.128906 572.789062 301.917969 572.222656 C 302.710938 571.652344 303.472656 571.050781 304.203125 570.410156 C 304.933594 569.765625 305.632812 569.089844 306.296875 568.378906 C 306.964844 567.671875 307.59375 566.929688 308.183594 566.15625 C 308.777344 565.386719 309.332031 564.585938 309.84375 563.757812 C 310.359375 562.933594 310.832031 562.082031 311.261719 561.210938 C 311.691406 560.335938 312.078125 559.445312 312.421875 558.535156 C 312.765625 557.625 313.0625 556.699219 313.3125 555.757812 C 313.378906 555.511719 313.441406 555.265625 313.503906 555.015625 C 322.730469 519.40625 309.066406 485.300781 305.757812 469.140625 Z M 305.761719 469.140625 " fill-opacity="1" fill-rule="nonzero"/><path fill="#3981bf" d="M 441.832031 472.769531 C 430.808594 485.195312 400.976562 510.101562 391.976562 544.007812 C 391.722656 544.945312 391.519531 545.894531 391.359375 546.855469 C 391.203125 547.816406 391.089844 548.78125 391.027344 549.753906 C 390.964844 550.722656 390.949219 551.695312 390.980469 552.667969 C 391.011719 553.640625 391.089844 554.609375 391.21875 555.574219 C 391.34375 556.539062 391.519531 557.496094 391.738281 558.445312 C 391.960938 559.390625 392.226562 560.324219 392.539062 561.246094 C 392.851562 562.167969 393.210938 563.074219 393.613281 563.960938 C 394.015625 564.847656 394.457031 565.710938 394.945312 566.554688 C 395.429688 567.394531 395.957031 568.214844 396.523438 569.003906 C 397.09375 569.796875 397.695312 570.554688 398.339844 571.289062 C 398.980469 572.019531 399.65625 572.71875 400.367188 573.382812 C 401.078125 574.046875 401.816406 574.675781 402.589844 575.269531 C 403.363281 575.863281 404.160156 576.414062 404.988281 576.929688 C 405.8125 577.441406 406.664062 577.914062 407.535156 578.347656 C 408.410156 578.777344 409.300781 579.164062 410.210938 579.503906 C 411.125 579.847656 412.046875 580.144531 412.988281 580.398438 C 413.929688 580.648438 414.878906 580.855469 415.839844 581.011719 C 416.800781 581.171875 417.765625 581.28125 418.738281 581.347656 C 419.707031 581.410156 420.679688 581.425781 421.652344 581.394531 C 422.625 581.363281 423.59375 581.28125 424.558594 581.15625 C 425.523438 581.027344 426.480469 580.855469 427.429688 580.632812 C 428.375 580.414062 429.308594 580.144531 430.230469 579.832031 C 431.152344 579.519531 432.058594 579.164062 432.945312 578.761719 C 433.832031 578.359375 434.695312 577.914062 435.539062 577.429688 C 436.382812 576.941406 437.199219 576.417969 437.988281 575.847656 C 438.78125 575.28125 439.542969 574.679688 440.273438 574.035156 C 441.003906 573.394531 441.703125 572.71875 442.367188 572.007812 C 443.035156 571.296875 443.664062 570.558594 444.253906 569.785156 C 444.847656 569.011719 445.402344 568.214844 445.914062 567.386719 C 446.429688 566.5625 446.902344 565.710938 447.332031 564.839844 C 447.761719 563.964844 448.148438 563.074219 448.492188 562.164062 C 448.835938 561.253906 449.132812 560.328125 449.382812 559.386719 C 449.449219 559.140625 449.511719 558.894531 449.574219 558.644531 C 458.800781 523.035156 445.136719 488.929688 441.832031 472.769531 Z M 441.832031 472.769531 " fill-opacity="1" fill-rule="nonzero"/><path fill="#3981bf" d="M 237.949219 592.84375 C 226.925781 605.269531 197.09375 630.175781 188.09375 664.078125 C 187.839844 665.019531 187.636719 665.96875 187.476562 666.929688 C 187.320312 667.890625 187.207031 668.855469 187.144531 669.828125 C 187.078125 670.796875 187.0625 671.769531 187.097656 672.742188 C 187.128906 673.714844 187.207031 674.683594 187.335938 675.648438 C 187.460938 676.613281 187.636719 677.570312 187.855469 678.519531 C 188.078125 679.464844 188.34375 680.398438 188.65625 681.320312 C 188.96875 682.242188 189.328125 683.148438 189.730469 684.035156 C 190.128906 684.921875 190.574219 685.785156 191.0625 686.628906 C 191.546875 687.46875 192.074219 688.289062 192.640625 689.078125 C 193.207031 689.871094 193.8125 690.628906 194.453125 691.363281 C 195.097656 692.09375 195.773438 692.792969 196.484375 693.457031 C 197.191406 694.121094 197.933594 694.75 198.707031 695.34375 C 199.476562 695.9375 200.277344 696.488281 201.105469 697.003906 C 201.929688 697.515625 202.78125 697.988281 203.652344 698.421875 C 204.527344 698.851562 205.417969 699.238281 206.328125 699.578125 C 207.238281 699.921875 208.164062 700.21875 209.105469 700.472656 C 210.046875 700.722656 210.996094 700.929688 211.957031 701.085938 C 212.917969 701.246094 213.882812 701.355469 214.851562 701.421875 C 215.824219 701.484375 216.796875 701.5 217.769531 701.46875 C 218.742188 701.4375 219.710938 701.355469 220.675781 701.230469 C 221.640625 701.101562 222.597656 700.929688 223.542969 700.707031 C 224.492188 700.488281 225.425781 700.21875 226.347656 699.90625 C 227.269531 699.59375 228.175781 699.238281 229.0625 698.835938 C 229.949219 698.433594 230.8125 697.988281 231.65625 697.503906 C 232.496094 697.015625 233.316406 696.488281 234.105469 695.921875 C 234.898438 695.355469 235.660156 694.753906 236.390625 694.109375 C 237.121094 693.46875 237.820312 692.792969 238.484375 692.082031 C 239.152344 691.371094 239.78125 690.632812 240.371094 689.859375 C 240.964844 689.085938 241.519531 688.289062 242.03125 687.460938 C 242.546875 686.636719 243.019531 685.785156 243.449219 684.914062 C 243.878906 684.039062 244.265625 683.148438 244.609375 682.238281 C 244.953125 681.328125 245.25 680.402344 245.5 679.460938 C 245.566406 679.214844 245.628906 678.96875 245.691406 678.71875 C 254.917969 643.109375 241.253906 609.003906 237.945312 592.84375 Z M 237.949219 592.84375 " fill-opacity="1" fill-rule="nonzero"/><path fill="#3981bf" d="M 373.796875 592.84375 C 362.773438 605.269531 332.941406 630.175781 323.941406 664.078125 C 323.6875 665.019531 323.484375 665.96875 323.324219 666.929688 C 323.167969 667.890625 323.054688 668.855469 322.992188 669.828125 C 322.929688 670.796875 322.914062 671.769531 322.945312 672.742188 C 322.976562 673.714844 323.054688 674.683594 323.183594 675.648438 C 323.308594 676.613281 323.484375 677.570312 323.703125 678.519531 C 323.925781 679.464844 324.191406 680.398438 324.503906 681.320312 C 324.816406 682.242188 325.175781 683.148438 325.578125 684.035156 C 325.980469 684.921875 326.421875 685.785156 326.910156 686.628906 C 327.394531 687.46875 327.921875 688.289062 328.488281 689.078125 C 329.054688 689.871094 329.660156 690.628906 330.300781 691.363281 C 330.945312 692.09375 331.621094 692.792969 332.332031 693.457031 C 333.039062 694.121094 333.78125 694.75 334.554688 695.34375 C 335.328125 695.9375 336.125 696.488281 336.953125 697.003906 C 337.777344 697.515625 338.628906 697.988281 339.5 698.421875 C 340.375 698.851562 341.265625 699.238281 342.175781 699.578125 C 343.085938 699.921875 344.011719 700.21875 344.953125 700.472656 C 345.894531 700.722656 346.84375 700.929688 347.804688 701.085938 C 348.765625 701.246094 349.730469 701.355469 350.703125 701.421875 C 351.671875 701.484375 352.644531 701.5 353.617188 701.46875 C 354.589844 701.4375 355.558594 701.355469 356.523438 701.230469 C 357.488281 701.101562 358.445312 700.929688 359.394531 700.707031 C 360.339844 700.488281 361.273438 700.21875 362.195312 699.90625 C 363.117188 699.59375 364.023438 699.238281 364.910156 698.835938 C 365.796875 698.433594 366.660156 697.988281 367.503906 697.503906 C 368.347656 697.015625 369.164062 696.492188 369.953125 695.921875 C 370.746094 695.355469 371.507812 694.753906 372.238281 694.109375 C 372.96875 693.46875 373.667969 692.792969 374.332031 692.082031 C 375 691.371094 375.628906 690.632812 376.21875 689.859375 C 376.8125 689.085938 377.367188 688.289062 377.878906 687.460938 C 378.394531 686.636719 378.867188 685.785156 379.296875 684.914062 C 379.726562 684.039062 380.113281 683.148438 380.457031 682.238281 C 380.800781 681.328125 381.097656 680.402344 381.347656 679.460938 C 381.414062 679.214844 381.476562 678.96875 381.539062 678.71875 C 390.765625 643.109375 377.101562 609.003906 373.796875 592.84375 Z M 373.796875 592.84375 " fill-opacity="1" fill-rule="nonzero"/></svg>